<?xml version="1.0" encoding="UTF-8"?>
<svg xmlns="http://www.w3.org/2000/svg" viewBox="0 0 1095 1095" width="1095" height="1095">
  <path d="M0.25 0.25C365.08 0.25 729.92 0.25 1094.75 0.25C1094.75 365.08 1094.75 729.92 1094.75 1094.75C729.92 1094.75 365.08 1094.75 0.25 1094.75C0.25 729.92 0.25 365.08 0.25 0.25ZM587.28 369.1C581.42 367.73 574.57 368.32 568.53 368.42C565.58 368.47 562.09 368.2 559.52 369.89C552.08 374.77 550.53 385.77 543.24 390.91C539.82 384.92 535.76 379.2 532.05 373.39C530.02 370.2 527.59 366.04 523.92 364.51C518.22 362.13 509.58 363.77 503.5 363.79C488.84 363.84 474.16 363.98 459.5 363.84C451.08 363.76 434.11 362.53 426.6 364.2C418.99 365.89 419.29 373.52 422.13 379.07C422.38 379.41 422.63 379.75 422.88 380.09C425.25 382.96 427.62 385.82 429.99 388.69C425.55 389.14 421 388.16 416.5 388.13C404.83 388.06 393.17 388.06 381.5 388.07C373.58 388.08 365.79 386.06 361.57 394.14C348.68 394.93 335.46 394 322.5 394.33C318.08 394.45 310.78 393.43 307.99 397.54C305.46 401.27 307.46 405.54 309.58 408.86C314.66 416.79 319.95 424.6 324.76 432.72C345.78 468.19 367.22 503.49 388.98 538.5C387.97 543.22 384.23 547.05 381.58 551.09C376.83 558.36 372.23 565.77 367.61 573.12C352.08 597.85 336.77 622.8 320.62 647.14C315.15 655.39 310.13 663.9 304.58 672.1C302.49 675.18 300.53 680.38 297.23 682C296.68 670.53 297.07 658.98 297 647.5C296.97 642.62 298.23 636.09 295.5 631.92C291.32 629.89 286.11 630.71 281.5 630.76C273.17 630.87 264.83 630.85 256.5 630.83C235.5 630.79 214.5 630.77 193.5 630.75C182.3 630.73 170.53 631.73 159.41 630.5C159.31 613.83 159.2 597.17 159.1 580.5C169.05 578.65 180.35 579.9 190.5 579.91C209.83 579.92 229.17 579.93 248.5 579.93C255.5 579.93 262.5 579.91 269.5 579.99C273.86 580.04 278.55 580.72 282.5 578.81C285.13 574.07 284.07 567.79 284.06 562.5C284.03 551.17 284.08 539.83 284.06 528.5C284.04 523.32 285.09 517.1 282.5 512.47C278.8 510.47 274.65 511.07 270.5 511.07C263.17 511.08 255.83 511.08 248.5 511.1C228.83 511.15 209.17 511.1 189.5 511.12C180.15 511.13 167.9 512.65 158.99 510.5C159.14 492.83 159.3 475.17 159.46 457.5C169.99 456.62 180.91 457.21 191.5 457.16C212.83 457.05 234.17 457.01 255.5 457.1C263.49 457.13 271.5 456.96 279.47 457.13C284.32 457.23 290.13 457.95 294.5 455.79C297.2 451.97 296.18 446.02 296.14 441.5C296.05 430.17 296.17 418.83 296.17 407.5C296.17 403.28 297.57 395.82 292.85 393.6C288.93 391.75 282.75 392.87 278.5 392.87C267.5 392.88 256.5 392.88 245.5 392.87C206.17 392.82 166.83 392.83 127.5 392.85C115.5 392.86 103.5 392.81 91.5 392.86C86.61 392.88 80.03 391.73 75.88 394.5C73.2 399.92 74.92 408.45 74.86 414.5C74.69 430.83 74.6 447.17 74.74 463.5C75.21 519.15 74.83 574.84 74.7 630.5C74.66 648.17 74.46 665.83 74.58 683.5C74.61 688.09 73.14 699.2 75.64 702.87C78.08 706.44 84.8 705.04 88.5 705.01C100.49 704.92 112.51 704.84 124.5 705.01C167.14 705.62 209.85 705.23 252.5 705.17C262.5 705.16 272.5 705.1 282.5 705.08C287.94 705.07 292.92 705.98 296.94 701.83C298.06 702.68 299.35 704.29 300.73 704.74C304.65 706.04 310.39 705 314.5 705C325.59 705.01 336.91 705.63 347.96 704.83C363.96 706.09 380.44 704.99 396.5 705.02C402.34 705.03 415.34 706.2 420.35 704.87C426.67 703.2 428.25 691.96 434 688.75C442 688.67 450 688.59 458 688.51C467.17 688.51 476.34 688.37 485.5 688.53C490.17 688.6 495.84 689.51 500.24 687.67C506.24 685.16 510.26 676.18 513.52 671C522.82 656.2 532.99 641.92 542.13 627.02C545.61 629.06 548.44 635.3 550.64 638.82C556.52 648.28 562.65 657.59 568.4 667.13C571.14 671.65 573.93 678.04 578.9 680.55C582.66 682.44 587.43 681.85 591.5 681.87C599.17 681.91 606.83 681.92 614.5 681.95C624.29 681.98 642.97 685.97 644.02 671.96C661.01 672.03 678.01 672.09 695 672.16C694.98 679.27 694.95 686.39 694.98 693.5C694.99 696.61 694.33 700.49 696.44 703.07C699.35 706.66 711.89 704.98 716.5 704.99C729.84 705.03 743.17 705.09 756.5 704.97C763.15 704.9 770.25 705.68 776.78 704.5C781.59 699.65 779.81 690.89 779.82 684.5C779.85 666.83 779.85 649.17 779.84 631.5C779.82 576.5 779.9 521.5 779.8 466.5C779.77 449.33 779.73 432.16 779.68 415C779.66 409.04 780.98 401.62 778.77 396C778.42 395.69 778.07 395.38 777.72 395.08C775.02 391 766 392.74 761.5 392.76C745.5 392.81 729.5 392.9 713.5 392.86C708.74 392.85 697.29 390.69 695.32 396.75C693.72 401.69 694.98 413.81 694.99 419.5C695.02 436.17 694.93 452.83 694.96 469.5C695.03 507.5 695.01 545.5 694.94 583.5C694.91 600.91 695.43 618.4 694.93 635.8C666.95 590.37 638.96 544.93 610.98 499.5C611.32 498.33 611.66 497.15 612 495.98C619.86 486.66 625.72 475.23 632.57 465.14C648.25 442.06 663.59 418.68 678.73 395.25C683.94 387.18 689.21 379.1 694.63 371.16C697.16 367.45 700.89 363.23 700.91 358.5C700.95 347.84 686.37 350.47 679.45 350.52C662.14 350.64 644.82 350.38 627.5 350.56C620.42 350.63 610.27 349.44 603.56 351.14C595.12 353.27 593.65 364.65 587.28 369.1ZM808.73 526C808.58 571.33 808.43 616.67 808.28 662C808.54 671.49 808.47 681.01 808.42 690.5C808.4 694.22 807.29 699.59 809.61 702.82C812.56 706.92 824.68 705.04 829.5 705C842.17 704.91 854.83 705.09 867.5 705.17C874.44 705.22 882.02 706 888.8 704.5C892.23 701.15 891.66 697.02 891.61 692.5C891.54 685.5 891.58 678.5 891.53 671.5C891.38 651.16 891.72 630.81 891.66 610.47C891.63 600.51 890.94 590.34 891.5 580.41C901.01 578.65 911.79 579.89 921.5 579.93C939.17 580 956.83 579.95 974.5 579.94C981.5 579.93 988.5 579.93 995.5 579.94C999.34 579.95 1003.35 580.61 1006.7 578.5C1009.36 573.64 1008.22 557.18 1007.88 551C1007.88 550.67 1007.88 550.33 1007.88 550C1008.4 541.22 1008.07 532.3 1008.05 523.5C1008.04 520.32 1009.02 515.39 1006.57 512.91C1004.27 510.58 1000.47 511.18 997.5 511.17C990.83 511.14 984.17 511.17 977.5 511.15C958.83 511.11 940.17 511.1 921.5 511.12C911.82 511.13 901.6 510.26 892 511.5C891.97 493.5 891.94 475.5 891.91 457.5C895.47 456.91 898.9 457.45 902.5 457.3C909.82 456.98 917.17 457.1 924.5 457.1C945.18 457.11 965.82 457.12 986.5 457.13C994.5 457.14 1002.51 457.51 1010.5 457.33C1013.24 457.27 1016.96 457.75 1019 455.52C1021.39 452.91 1020.8 448.75 1020.8 445.5C1020.79 437.65 1020.65 429.81 1020.61 421.97C1020.57 415.9 1021.98 400.51 1019.67 395.77C1017.69 391.7 1011.16 392.86 1007.5 392.85C995.17 392.82 982.83 392.93 970.5 392.89C934.84 392.79 899.16 392.76 863.5 392.88C852.17 392.91 840.83 392.87 829.5 392.89C823.48 392.9 817.04 392.36 811.15 393.5C807.49 396.75 808.36 400.94 808.47 405.5C808.65 412.83 808.52 420.16 808.53 427.5C808.57 449.17 808.46 470.83 808.46 492.5C808.45 502.77 807.55 516.09 808.73 526ZM938.5 1046.62C938.3 1046.91 938.09 1047.21 937.89 1047.5C938.09 1047.67 938.3 1047.83 938.5 1048C938.67 1047.83 938.83 1047.67 939 1047.5C938.83 1047.21 938.67 1046.91 938.5 1046.62ZM1065.5 1052.43C1065.33 1052.79 1065.17 1053.14 1065 1053.5C1064.84 1053.83 1064.67 1054.17 1064.51 1054.5C1064.53 1054.83 1064.55 1055.17 1064.58 1055.5C1064.89 1055.67 1065.19 1055.83 1065.5 1056C1065.68 1055.83 1065.85 1055.67 1066.03 1055.5C1066 1055.17 1065.97 1054.83 1065.94 1054.5C1065.95 1054.17 1065.97 1053.83 1065.98 1053.5C1065.82 1053.14 1065.66 1052.79 1065.5 1052.43ZM1065.95 1061.93C1065.8 1062.28 1065.65 1062.64 1065.5 1063C1065.65 1062.64 1065.8 1062.28 1065.95 1061.93C1066.53 1061.78 1067.12 1061.64 1067.7 1061.5C1067.12 1061.64 1066.53 1061.78 1065.95 1061.93ZM955.07 1064.08C955.07 1063.77 955.07 1063.45 955.07 1063.14C955.07 1063.45 955.07 1063.77 955.07 1064.08ZM1075.5 1063.04C1075.33 1063.2 1075.15 1063.35 1074.98 1063.5C1075.15 1063.74 1075.33 1063.99 1075.5 1064.23C1075.85 1063.99 1076.19 1063.74 1076.54 1063.5C1076.19 1063.35 1075.85 1063.2 1075.5 1063.04ZM1067.5 1067.92C1067.31 1068.11 1067.11 1068.31 1066.92 1068.5C1067.11 1068.87 1067.31 1069.25 1067.5 1069.62C1067.67 1069.25 1067.83 1068.87 1068 1068.5C1067.83 1068.31 1067.67 1068.11 1067.5 1067.92Z" transform="translate(0.00006 -0.00003)" fill="#FFFFFF" fill-rule="evenodd" stroke="#FFFFFF" stroke-width="0.25" stroke-linejoin="round"/>
  <path d="M297.23 682C297.13 688.61 297.04 695.22 296.94 701.83C292.92 705.98 287.94 705.07 282.5 705.08C272.5 705.1 262.5 705.16 252.5 705.17C209.85 705.23 167.14 705.62 124.5 705.01C112.51 704.84 100.49 704.92 88.5 705.01C84.8 705.04 78.08 706.44 75.64 702.87C73.14 699.2 74.61 688.09 74.58 683.5C74.46 665.83 74.66 648.17 74.7 630.5C74.83 574.84 75.21 519.15 74.74 463.5C74.6 447.17 74.69 430.83 74.86 414.5C74.92 408.45 73.2 399.92 75.88 394.5C80.03 391.73 86.61 392.88 91.5 392.86C103.5 392.81 115.5 392.86 127.5 392.85C166.83 392.83 206.17 392.82 245.5 392.87C256.5 392.88 267.5 392.88 278.5 392.87C282.75 392.87 288.93 391.75 292.85 393.6C297.57 395.82 296.17 403.28 296.17 407.5C296.17 418.83 296.05 430.17 296.14 441.5C296.18 446.02 297.2 451.97 294.5 455.79C290.13 457.95 284.32 457.23 279.47 457.13C271.5 456.96 263.49 457.13 255.5 457.1C234.17 457.01 212.83 457.05 191.5 457.16C180.91 457.21 169.99 456.62 159.46 457.5C159.3 475.17 159.14 492.83 158.99 510.5C167.9 512.65 180.15 511.13 189.5 511.12C209.17 511.1 228.83 511.15 248.5 511.1C255.83 511.08 263.17 511.08 270.5 511.07C274.65 511.07 278.8 510.47 282.5 512.47C285.09 517.1 284.04 523.32 284.06 528.5C284.08 539.83 284.03 551.17 284.06 562.5C284.07 567.79 285.13 574.07 282.5 578.81C278.55 580.72 273.86 580.04 269.5 579.99C262.5 579.91 255.5 579.93 248.5 579.93C229.17 579.93 209.83 579.92 190.5 579.91C180.35 579.9 169.05 578.65 159.1 580.5C159.2 597.17 159.31 613.83 159.41 630.5C170.53 631.73 182.3 630.73 193.5 630.75C214.5 630.77 235.5 630.79 256.5 630.83C264.83 630.85 273.17 630.87 281.5 630.76C286.11 630.71 291.32 629.89 295.5 631.92C298.23 636.09 296.97 642.62 297 647.5C297.07 658.98 296.68 670.53 297.23 682ZM777.72 395.08C778.07 395.38 778.42 395.69 778.77 396C780.98 401.62 779.66 409.04 779.68 415C779.73 432.16 779.77 449.33 779.8 466.5C779.9 521.5 779.82 576.5 779.84 631.5C779.85 649.17 779.85 666.83 779.82 684.5C779.81 690.89 781.59 699.65 776.78 704.5C770.25 705.68 763.15 704.9 756.5 704.97C743.17 705.09 729.84 705.03 716.5 704.99C711.89 704.98 699.35 706.66 696.44 703.07C694.33 700.49 694.99 696.61 694.98 693.5C694.95 686.39 694.98 679.27 695 672.16C696.81 672.13 698.8 672.15 700.55 671.56C717.35 665.95 699.95 644.13 694.93 635.8C695.43 618.4 694.91 600.91 694.94 583.5C695.01 545.5 695.03 507.5 694.96 469.5C694.93 452.83 695.02 436.17 694.99 419.5C694.98 413.81 693.72 401.69 695.32 396.75C697.29 390.69 708.74 392.85 713.5 392.86C729.5 392.9 745.5 392.81 761.5 392.76C766 392.74 775.02 391 777.72 395.08ZM1007.88 550C1007.88 550.33 1007.88 550.67 1007.88 551C1008.22 557.18 1009.36 573.64 1006.7 578.5C1003.35 580.61 999.34 579.95 995.5 579.94C988.5 579.93 981.5 579.93 974.5 579.94C956.83 579.95 939.17 580 921.5 579.93C911.79 579.89 901.01 578.65 891.5 580.41C890.94 590.34 891.63 600.51 891.66 610.47C891.72 630.81 891.38 651.16 891.53 671.5C891.58 678.5 891.54 685.5 891.61 692.5C891.66 697.02 892.23 701.15 888.8 704.5C882.02 706 874.44 705.22 867.5 705.17C854.83 705.09 842.17 704.91 829.5 705C824.68 705.04 812.56 706.92 809.61 702.82C807.29 699.59 808.4 694.22 808.42 690.5C808.47 681.01 808.54 671.49 808.28 662C809.89 658.59 809.06 653.38 809.07 649.5C809.1 640.5 809.12 631.5 809.07 622.5C808.98 601.83 809.1 581.17 809.11 560.5C809.12 549.26 810.32 537.09 808.73 526C807.55 516.09 808.45 502.77 808.46 492.5C808.46 470.83 808.57 449.17 808.53 427.5C808.52 420.16 808.65 412.83 808.47 405.5C808.36 400.94 807.49 396.75 811.15 393.5C817.04 392.36 823.48 392.9 829.5 392.89C840.83 392.87 852.17 392.91 863.5 392.88C899.16 392.76 934.84 392.79 970.5 392.89C982.83 392.93 995.17 392.82 1007.5 392.85C1011.16 392.86 1017.69 391.7 1019.67 395.77C1021.98 400.51 1020.57 415.9 1020.61 421.97C1020.65 429.81 1020.79 437.65 1020.8 445.5C1020.8 448.75 1021.39 452.91 1019 455.52C1016.96 457.75 1013.24 457.27 1010.5 457.33C1002.51 457.51 994.5 457.14 986.5 457.13C965.82 457.12 945.18 457.11 924.5 457.1C917.17 457.1 909.82 456.98 902.5 457.3C898.9 457.45 895.47 456.91 891.91 457.5C891.94 475.5 891.97 493.5 892 511.5C901.6 510.26 911.82 511.13 921.5 511.12C940.17 511.1 958.83 511.11 977.5 511.15C984.17 511.17 990.83 511.14 997.5 511.17C1000.47 511.18 1004.27 510.58 1006.57 512.91C1009.02 515.39 1008.04 520.32 1008.05 523.5C1008.07 532.3 1008.4 541.22 1007.88 550ZM778.5 515C778.38 515.17 778.26 515.33 778.13 515.5C778.26 515.67 778.38 515.83 778.5 516C778.67 515.83 778.83 515.67 779 515.5C778.83 515.33 778.67 515.17 778.5 515Z" fill="#000000" fill-rule="evenodd" stroke="#000000" stroke-width="0.25" stroke-linejoin="round"/>
  <path d="M543.24 390.91C545.86 396.29 549.74 401.45 552.88 406.64C554.52 409.36 555.64 412.3 558.22 414.06C556.89 416.67 559.66 418.1 561.22 420.29C564.3 424.6 567.14 429.06 570.03 433.51C579.91 448.73 589.03 464.46 599 479.59C602.61 485.06 605.18 493.77 612 495.98C611.66 497.15 611.32 498.33 610.98 499.5C638.96 544.93 666.95 590.37 694.93 635.8C699.95 644.13 717.35 665.95 700.55 671.56C698.8 672.15 696.81 672.13 695 672.16C678.01 672.09 661.01 672.03 644.02 671.96C635.51 668.34 617.09 674.09 608.76 669.72C603.16 666.79 598.83 656.36 595.41 651.08C585.69 636.08 576.15 620.94 566.9 605.63C565.3 602.98 563.34 600.6 561.86 597.88C560.87 594.17 557.74 591.07 555.71 587.8C551.63 581.21 547.6 574.69 543.21 568.31C533.33 553.98 525.81 537.99 515.56 523.96C514.2 522.1 512.23 520.73 510.75 518.97C511 517.96 511.25 516.96 511.5 515.96C501.62 500.67 491.75 485.38 481.87 470.1C464.58 442.96 447.29 415.82 429.99 388.69C427.62 385.82 425.25 382.96 422.88 380.09C422.63 379.75 422.38 379.41 422.13 379.07C419.29 373.52 418.99 365.89 426.6 364.2C434.11 362.53 451.08 363.76 459.5 363.84C474.16 363.98 488.84 363.84 503.5 363.79C509.58 363.77 518.22 362.13 523.92 364.51C527.59 366.04 530.02 370.2 532.05 373.39C535.76 379.2 539.82 384.92 543.24 390.91ZM414.92 668.75C417.9 670.94 416.62 674.72 418.52 677.5C420.78 678.25 423.06 678.74 424.48 680.87C424.87 681.46 424.5 681.86 425.07 682.43C425.67 683.03 427.18 682.68 427.38 683.5C427.45 683.78 426.81 683.68 426.62 683.9C426.2 684.37 426 685.01 425.6 685.5C437.24 685.78 448.87 686.06 460.5 686.34C459.67 687.06 458.83 687.79 458 688.51C450 688.59 442 688.67 434 688.75C426.68 686.82 409.16 692.33 409.75 678.5C409.82 676.82 410.51 675.24 411.28 673.77C412.28 671.87 413.4 670.2 414.92 668.75Z" fill="#FF873B" fill-rule="evenodd" stroke="#FF873B" stroke-width="0.25" stroke-linejoin="round"/>
  <path d="M612 495.98C605.18 493.77 602.61 485.06 599 479.59C589.03 464.46 579.91 448.73 570.03 433.51C567.14 429.06 564.3 424.6 561.22 420.29C559.66 418.1 556.89 416.67 558.22 414.06C564.13 404.2 571.16 394.66 577.6 385.11C580.87 380.26 586.1 374.74 587.28 369.1C593.65 364.65 595.12 353.27 603.56 351.14C610.27 349.44 620.42 350.63 627.5 350.56C644.82 350.38 662.14 350.64 679.45 350.52C686.37 350.47 700.95 347.84 700.91 358.5C700.89 363.23 697.16 367.45 694.63 371.16C689.21 379.1 683.94 387.18 678.73 395.25C663.59 418.68 648.25 442.06 632.57 465.14C625.72 475.23 619.86 486.66 612 495.98ZM510.75 518.97C512.23 520.73 514.2 522.1 515.56 523.96C525.81 537.99 533.33 553.98 543.21 568.31C547.6 574.69 551.63 581.21 555.71 587.8C557.74 591.07 560.87 594.17 561.86 597.88C558.8 599.03 557.17 602.98 555.33 605.78C550.85 612.62 545.69 619.74 542.13 627.02C532.99 641.92 522.82 656.2 513.52 671C510.26 676.18 506.24 685.16 500.24 687.67C495.84 689.51 490.17 688.6 485.5 688.53C476.34 688.37 467.17 688.51 458 688.51C458.83 687.79 459.67 687.06 460.5 686.34C448.87 686.06 437.24 685.78 425.6 685.5C426 685.01 426.2 684.37 426.62 683.9C426.81 683.68 427.45 683.78 427.38 683.5C427.18 682.68 425.67 683.03 425.07 682.43C424.5 681.86 424.87 681.46 424.48 680.87C423.06 678.74 420.78 678.25 418.52 677.5C416.62 674.72 417.9 670.94 414.92 668.75C433.97 638.5 453.02 608.24 472.08 577.99C484.97 558.32 497.86 538.64 510.75 518.97Z" fill="#FD7B36" fill-rule="evenodd" stroke="#FD7B36" stroke-width="0.25" stroke-linejoin="round"/>
  <path d="M361.57 394.14C362.29 399.57 365.67 403.35 368.62 407.83C374.6 416.94 380.43 426.12 386.18 435.36C396.4 451.8 406.65 468.22 416.77 484.72C425.54 499.02 433.11 514.21 442.84 527.87C442.83 528.55 442.81 529.23 442.8 529.91C438.58 533.83 435.74 540.32 432.69 545.27C427.87 553.1 423.24 561.08 418.42 568.91C399.76 599.22 381.87 630.18 362.5 660C357.5 667.7 352.69 675.54 347.85 683.33C345.7 686.78 342.27 691.33 342.09 695.53C341.93 699.52 345.42 702.43 347.96 704.83C336.91 705.63 325.59 705.01 314.5 705C310.39 705 304.65 706.04 300.73 704.74C299.35 704.29 298.06 702.68 296.94 701.83C297.04 695.22 297.13 688.61 297.23 682C300.53 680.38 302.49 675.18 304.58 672.1C310.13 663.9 315.15 655.39 320.62 647.14C336.77 622.8 352.08 597.85 367.61 573.12C372.23 565.77 376.83 558.36 381.58 551.09C384.23 547.05 387.97 543.22 388.98 538.5C367.22 503.49 345.78 468.19 324.76 432.72C319.95 424.6 314.66 416.79 309.58 408.86C307.46 405.54 305.46 401.27 307.99 397.54C310.78 393.43 318.08 394.45 322.5 394.33C335.46 394 348.68 394.93 361.57 394.14Z" fill="#BFBBB8" fill-rule="evenodd" stroke="#BFBBB8" stroke-width="0.25" stroke-linejoin="round"/>
  <path d="M442.8 529.91C445.08 534.94 448.61 538.5 451.51 543.02C456.19 550.28 460.53 557.94 465.37 565.16C468.34 569.58 472.88 572.04 472.08 577.99C453.02 608.24 433.97 638.5 414.92 668.75C413.4 670.2 412.28 671.87 411.28 673.77C410.51 675.24 409.82 676.82 409.75 678.5C409.16 692.33 426.68 686.82 434 688.75C428.25 691.96 426.67 703.2 420.35 704.87C415.34 706.2 402.34 705.03 396.5 705.02C380.44 704.99 363.96 706.09 347.96 704.83C345.42 702.43 341.93 699.52 342.09 695.53C342.27 691.33 345.7 686.78 347.85 683.33C352.69 675.54 357.5 667.7 362.5 660C381.87 630.18 399.76 599.22 418.42 568.91C423.24 561.08 427.87 553.1 432.69 545.27C435.74 540.32 438.58 533.83 442.8 529.91Z" fill="#EBD5C8" fill-rule="evenodd" stroke="#EBD5C8" stroke-width="0.25" stroke-linejoin="round"/>
  <path d="M587.28 369.1C586.1 374.74 580.87 380.26 577.6 385.11C571.16 394.66 564.13 404.2 558.22 414.06C555.64 412.3 554.52 409.36 552.88 406.64C549.74 401.45 545.86 396.29 543.24 390.91C550.53 385.77 552.08 374.77 559.52 369.89C562.09 368.2 565.58 368.47 568.53 368.42C574.57 368.32 581.42 367.73 587.28 369.1ZM429.99 388.69C447.29 415.82 464.58 442.96 481.87 470.1C475.4 472.22 471.14 483.62 467.8 489.27C463.04 497.33 457.43 505.04 452.47 512.97C450.98 515.35 448.85 517.56 447.53 520.02C446.04 522.79 444.8 525.28 442.84 527.87C433.11 514.21 425.54 499.02 416.77 484.72C406.65 468.22 396.4 451.8 386.18 435.36C380.43 426.12 374.6 416.94 368.62 407.83C365.67 403.35 362.29 399.57 361.57 394.14C365.79 386.06 373.58 388.08 381.5 388.07C393.17 388.06 404.83 388.06 416.5 388.13C421 388.16 425.55 389.14 429.99 388.69Z" fill="#FDC499" fill-rule="evenodd" stroke="#FDC499" stroke-width="0.25" stroke-linejoin="round"/>
  <path d="M481.87 470.1C491.75 485.38 501.62 500.67 511.5 515.96C511.25 516.96 511 517.96 510.75 518.97C497.86 538.64 484.97 558.32 472.08 577.99C472.88 572.04 468.34 569.58 465.37 565.16C460.53 557.94 456.19 550.28 451.51 543.02C448.61 538.5 445.08 534.94 442.8 529.91C442.81 529.23 442.83 528.55 442.84 527.87C444.8 525.28 446.04 522.79 447.53 520.02C448.85 517.56 450.98 515.35 452.47 512.97C457.43 505.04 463.04 497.33 467.8 489.27C471.14 483.62 475.4 472.22 481.87 470.1Z" fill="#FECFA4" fill-rule="evenodd" stroke="#FECFA4" stroke-width="0.25" stroke-linejoin="round"/>
  <path d="M561.86 597.88C563.34 600.6 565.3 602.98 566.9 605.63C576.15 620.94 585.69 636.08 595.41 651.08C598.83 656.36 603.16 666.79 608.76 669.72C617.09 674.09 635.51 668.34 644.02 671.96C642.97 685.97 624.29 681.98 614.5 681.95C606.83 681.92 599.17 681.91 591.5 681.87C587.43 681.85 582.66 682.44 578.9 680.55C573.93 678.04 571.14 671.65 568.4 667.13C562.65 657.59 556.52 648.28 550.64 638.82C548.44 635.3 545.61 629.06 542.13 627.02C545.69 619.74 550.85 612.62 555.33 605.78C557.17 602.98 558.8 599.03 561.86 597.88Z" fill="#FBB68F" fill-rule="evenodd" stroke="#FBB68F" stroke-width="0.25" stroke-linejoin="round"/>
  <path d="M808.73 526C810.32 537.09 809.12 549.26 809.11 560.5C809.1 581.17 808.98 601.83 809.07 622.5C809.12 631.5 809.1 640.5 809.07 649.5C809.06 653.38 809.89 658.59 808.28 662C808.43 616.67 808.58 571.33 808.73 526Z" fill="#797877" fill-rule="evenodd" stroke="#797877" stroke-width="0.25" stroke-linejoin="round"/>
</svg>